<?xml version="1.0" encoding="iso-8859-1"?>
<!DOCTYPE svg PUBLIC "-//W3C//DTD SVG 1.1//EN" "http://www.w3.org/Graphics/SVG/1.1/DTD/svg11.dtd">
<svg version="1.1" xmlns="http://www.w3.org/2000/svg" xmlns:xlink="http://www.w3.org/1999/xlink" x="0px" y="0px" width="480px"
	 height="480px" viewBox="0 0 480 480" style="enable-background:new 0 0 480 480;" xml:space="preserve">
  <path style="fill-rule:evenodd;clip-rule:evenodd;" d="M240,66.667c-95.729,0-173.333,77.604-173.333,173.333
  	S144.271,413.333,240,413.333S413.333,335.729,413.333,240S335.729,66.667,240,66.667z M333.333,253.333
  	c0,7.363-5.97,13.334-13.333,13.334h-53.333V320c0,7.363-5.971,13.333-13.334,13.333h-26.666c-7.363,0-13.334-5.97-13.334-13.333
  	v-53.333H160c-7.363,0-13.333-5.971-13.333-13.334v-26.666c0-7.363,5.97-13.334,13.333-13.334h53.333V160
  	c0-7.363,5.971-13.333,13.334-13.333h26.666c7.363,0,13.334,5.97,13.334,13.333v53.333H320c7.363,0,13.333,5.971,13.333,13.334
  	V253.333z"/>
</svg>
